{"scene":0,"asset":{"generator":"ImageToStl.com","version":"2.0"},"scenes":[{"name":"Scene","nodes":[0]}],"nodes":[{"name":"Node0","children":[1,2]},{"name":"Node1","mesh":0},{"name":"Node2","mesh":1}],"materials":[{"name":"Material.001","pbrMetallicRoughness":{"baseColorFactor":[0.8,0.8,0.8,1.0],"metallicFactor":0.5,"roughnessFactor":0.64},"emissiveFactor":[0.0,0.0,0.0],"doubleSided":true},{"name":"Material.005","pbrMetallicRoughness":{"baseColorFactor":[0.8,0.8,0.8,1.0],"metallicFactor":0.5,"roughnessFactor":0.64},"emissiveFactor":[0.0,0.0,0.0],"doubleSided":true}],"meshes":[{"name":"Mesh0","primitives":[{"indices":3,"material":0,"attributes":{"POSITION":0,"NORMAL":1,"TEXCOORD_0":2}}]},{"name":"Mesh0","primitives":[{"indices":7,"material":1,"attributes":{"POSITION":4,"NORMAL":5,"TEXCOORD_0":6}}]}],"accessors":[{"bufferView":0,"componentType":5126,"count":353,"type":"VEC3","min":[0.02928716,-0.9858488,-0.3765723],"max":[2.969427,1.9521781,0.34401417]},{"bufferView":1,"componentType":5126,"count":353,"type":"VEC3"},{"bufferView":2,"componentType":5126,"count":353,"type":"VEC2"},{"bufferView":3,"componentType":5123,"count":4788,"type":"SCALAR"},{"bufferView":4,"componentType":5126,"count":353,"type":"VEC3","min":[-1.4707301,-2.903335,-0.5874874],"max":[1.5255413,0.07561064,0.05452001]},{"bufferView":5,"componentType":5126,"count":353,"type":"VEC3"},{"bufferView":6,"componentType":5126,"count":353,"type":"VEC2"},{"bufferView":7,"componentType":5123,"count":4788,"type":"SCALAR"}],"bufferViews":[{"target":34962,"buffer":0,"byteLength":4236,"byteOffset":0},{"target":34962,"buffer":0,"byteLength":4236,"byteOffset":4236},{"target":34962,"buffer":0,"byteLength":2824,"byteOffset":8472},{"target":34963,"buffer":0,"byteLength":9576,"byteOffset":11296},{"target":34962,"buffer":0,"byteLength":4236,"byteOffset":20872},{"target":34962,"buffer":0,"byteLength":4236,"byteOffset":25108},{"target":34962,"buffer":0,"byteLength":2824,"byteOffset":29344},{"target":34963,"buffer":0,"byteLength":9576,"byteOffset":32168}],"buffers":[{"byteLength":41744,"uri":"data:application/octet-stream;base64,"}]}